<?xml version="1.0" encoding="UTF-8"?>
<svg id="Layer_1" data-name="Layer 1" xmlns="http://www.w3.org/2000/svg" viewBox="0 0 143.19 123.08">
  <defs>
    <style>
      .cls-1 {
        fill: #305d43;
      }

      .cls-2 {
        fill: #ca9565;
      }
    </style>
  </defs>
  <path class="cls-2" d="M123.84,105.43h12.44l6.91,4.15v12.56l-1.38.94h-28.9v-6.22h23.37v-4.52h-18.53l-1.38-.94v-8.98l17.28-10.11.94,1.38v5.47l-10.74,6.28Z"/>
  <path class="cls-2" d="M94.82,105.62v11.27h3.45v6.19h-3.45l-.71-.51-.71.51h-3.96l-6.6-3.86v2.94l-1.42.91h-8.02v-6.19h3.45v-8.53l11.06-6.39,6.9,3.65ZM82.85,112.42l5.07,3.25v-6.39l-5.07,3.15Z"/>
  <path class="cls-2" d="M109.41,91.41v25.46h3.5v6.21h-3.5l-.64-.48-.64.48h-9.87v-6.21h4.3v-21.8l6.84-3.66Z"/>
  <path class="cls-2" d="M69.2,91.48v25.38h4.21v6.22h-9.8l-1.38-.94v-26.95l6.97-3.71Z"/>
  <path class="cls-2" d="M52.73,116.76v-11.38l6.96-3.64v20.4l-1.42.95h-15.18v-6.17h9.65v-.16ZM52.61,94.73l-3.63,3.63-4.08-4.08,4.08-4.08,3.63,3.63,3.63-3.63,4.08,4.08-4.08,4.08-3.63-3.63Z"/>
  <polygon class="cls-2" points="19.53 116.9 19.53 121.75 18.66 123.08 0 123.08 3.17 116.9 19.53 116.9"/>
  <polygon class="cls-1" points="42.05 107.99 42.05 115.04 41.63 115.32 34.08 115.32 33.67 115.04 33.67 109.04 34.08 108.77 36.78 108.77 38.02 107.54 39.25 108.77 38.02 110.01 36.78 108.82 36.41 109.04 35.68 109.04 35.68 113.49 40.03 113.49 40.03 109.04 42.05 107.99"/>
  <path class="cls-1" d="M17.66,107.93l.41.27v4.01h.99v1.76h-.99v1.58l-1.98,1.04v-8.65h1.58Z"/>
  <polygon class="cls-1" points="12.1 112.2 12.1 113.96 12.1 113.96 12.1 114.86 11.7 115.13 4.26 115.13 3.85 114.86 3.85 108.96 4.26 108.69 6.92 108.69 8.13 107.47 9.35 108.69 8.13 109.9 6.92 108.73 6.56 108.96 5.84 108.96 5.84 113.32 10.12 113.32 10.12 108.96 12.1 107.92 12.1 112.2 12.1 112.2"/>
  <path class="cls-1" d="M26.63,112.16v-6.17l1.98-1.04v8.74l-.41.27h-2.79v-1.76h1.22v-.05Z"/>
  <path class="cls-1" d="M30.37,113.92v-7.93l1.98-1.04v8.74l-.41.27h-1.58v-.05Z"/>
  <path class="cls-1" d="M25.03,112.2h.99v1.76h-.99l-.18-.14-.18.14h-5.77v-1.76h1.58l-.59-.36v-2.12l3.15-1.85,1.98,1.04v3.29ZM23.09,105.85l-1.08,1.08-1.22-1.22,1.22-1.22,1.08,1.08,1.08-1.08,1.22,1.22-1.22,1.22-1.08-1.08ZM23.09,111.89v-1.85l-1.44.9,1.44.95Z"/>
  <path class="cls-1" d="M42.05,113.41v-.33h1.27v-5.1l4.08-2.38,2.56,1.36v6.1l-.51.33h-1.47l-2.45-1.43v1.09l-.51.33h-2.96v.02ZM45.52,109.52l1.87,1.18v-2.36l-1.87,1.18Z"/>
  <rect class="cls-2" x="15.9" y="116.9" width="31.49" height="6.18"/>
  <polygon class="cls-1" points="15.02 102.91 15.36 102.73 15.41 102.76 15.16 103.65 12.76 103.87 12.68 104.04 12.34 104.22 12.29 104.2 12.54 103.3 14.94 103.08 15.02 102.91"/>
  <path class="cls-1" d="M13.11,113.92v-7.93l1.98-1.04v8.74l-.41.27h-1.58v-.05Z"/>
  <g>
    <path class="cls-1" d="M129.78,18.66c8.71,0,13.41,6.59,13.41,13.41v20.47c0,6.12-4.47,14.12-13.41,14.12h-12.47c-.24,0-.47-.24-.47-.47v-.47c0-.24.24-.47.47-.47h4.47s5.88,0,5.88-5.18V24.77c0-6.12-6.12-5.18-6.12-5.18v-.71h8.24v-.24ZM118.01,2.68l1.65-1.65h8.94v11.77h-10.59V2.68ZM130.49,2.68l1.65-1.65h8.94v11.77h-10.59V2.68Z"/>
    <path class="cls-1" d="M119.61,65.25c.24,0,.47.24.47.47v.47c0,.24-.24.47-.47.47h-2.35c-3.53,0-5.65-.94-6.59-3.06-11.77,10.35-42.36,7.29-42.36-8.94,0-.24.24-.47.47-.47h.94c.24,0,.47.24.47.47,0,15.3,29.65,15.3,29.65-.71v-17.41c0-12.94-9.18-17.65-18.35-12.71,2.35.94,4,3.29,4,5.65,0,9.18-13.18,9.18-13.18,0,0-7.77,9.65-10.82,18.35-10.82,11.77,0,24.71,6.12,24.71,17.65v17.41c0,3.29-1.18,6.12-3.06,8.47.47,1.65,2.35,2.82,6.12,2.82h1.18v.24Z"/>
    <path class="cls-1" d="M47.96,18.66c8.71,0,13.41,6.59,13.41,13.41v20.47c0,6.12-4.47,14.12-13.41,14.12h-12.47c-.24,0-.47-.24-.47-.47v-.47c0-.24.24-.47.47-.47h4.47s5.88,0,5.88-5.18V24.78c0-6.12-6.12-5.18-6.12-5.18v-.71h8.24v-.24ZM44.9,75.37l1.65-1.65h10.12v11.77h-11.77v-10.12Z"/>
    <path class="cls-1" d="M36.03,65.33v1.2h-.63c-.72,14.35-19.61,19.61-34.92,16.74-.24,0-.48-.24-.48-.48v-.96c0-.24.24-.48.72-.48,11.48,2.15,19.14-1.2,19.14-7.89V25.15l-7.66,5.02-.48-.72,17.46-11.24h6.22v47.12h.63Z"/>
    <path class="cls-2" d="M40.17,4.49c0-.11.11-.22.22-.22l7.74-.56V1.35c0-.22.11-.45.34-.67l.67-.45c.11-.11.34-.22.56-.22h2.36c1.23,0,1.91,1.12,1.91,1.8v2.13c0,.11-.11.22-.22.22l-3.48.22v1.12c0,.11-.11.22-.22.22l-1.46.11c-.11,0-.34-.11-.34-.22v-1.01l-7.63.56c-.11,0-.34-.11-.34-.22v-.45h-.11ZM40.84,8.75c0-.56.45-1.01,1.12-1.01h.9v.22s-1.12-.11-1.12.9v2.81c0,1.68,3.48,2.13,3.48,0v-2.81c0-.56.45-1.01,1.12-1.01h1.8v.22s-1.12-.11-1.12.9v2.24c0,.22,0,.56-.11.67.22,1.57,3.48,1.46,3.48-.22v-2.81c0-.56.45-1.01,1.12-1.01h1.8v.22s-1.12-.11-1.12.9v2.24c0,3.03-4.6,3.25-5.61,1.23-1.01,2.58-5.84,2.02-5.84-.79v-2.92h.11ZM50.49.23c-.11,0-.22.11-.22.22v3.14l1.57-.11V.9c0-.67-.79-.67-.79-.67h-.56Z"/>
  </g>
</svg>