<?xml version="1.0" encoding="UTF-8"?>
<svg id="Layer_1" data-name="Layer 1" xmlns="http://www.w3.org/2000/svg" xmlns:xlink="http://www.w3.org/1999/xlink" viewBox="0 0 1024 1024">
  <defs>
    <style>
      .cls-1 {
        fill: #eac19a;
      }

      .cls-2 {
        fill: url(#linear-gradient);
      }

      .cls-3 {
        fill: #fff;
      }
    </style>
    <linearGradient id="linear-gradient" x1="167.46" y1="-84.77" x2="856.54" y2="1108.77" gradientUnits="userSpaceOnUse">
      <stop offset="0" stop-color="#5b7c67"/>
      <stop offset="1" stop-color="#305d43"/>
    </linearGradient>
  </defs>
  <rect class="cls-2" width="1024" height="1024" rx="28.2" ry="28.2"/>
  <path class="cls-1" d="M834.02,376.38c49.65,0,76.49,37.58,76.49,76.49v116.75c0,34.89-25.5,80.52-76.49,80.52h-71.13c-1.34,0-2.68-1.34-2.68-2.68v-2.68c0-1.34,1.34-2.68,2.68-2.68h25.5s33.55,0,33.55-29.52v-201.3c0-34.89-34.89-29.52-34.89-29.52v-4.03h46.97v-1.34ZM766.92,285.27l9.39-9.39h51v67.1h-60.39v-57.71ZM838.04,285.27l9.39-9.39h51v67.1h-60.39v-57.71Z"/>
  <path class="cls-1" d="M776.01,642.13c1.34,0,2.68,1.34,2.68,2.68v2.68c0,1.34-1.34,2.68-2.68,2.68h-13.42c-20.13,0-32.21-5.37-37.58-17.45-67.1,59.05-241.56,41.6-241.56-51,0-1.34,1.34-2.68,2.68-2.68h5.37c1.34,0,2.68,1.34,2.68,2.68,0,87.23,169.09,87.23,169.09-4.03v-99.31c0-73.81-52.34-100.65-104.68-72.47,13.42,5.37,22.81,18.79,22.81,32.21,0,52.34-75.15,52.34-75.15,0,0-44.29,55.02-61.73,104.68-61.73,67.1,0,140.91,34.89,140.91,100.65v99.31c0,18.79-6.71,34.89-17.45,48.31,2.68,9.39,13.42,16.1,34.89,16.1h6.71v1.35Z"/>
  <path class="cls-1" d="M367.36,376.4c49.65,0,76.49,37.58,76.49,76.49v116.75c0,34.89-25.5,80.52-76.49,80.52h-71.13c-1.34,0-2.68-1.34-2.68-2.68v-2.68c0-1.34,1.34-2.68,2.68-2.68h25.5s33.55,0,33.55-29.52v-201.3c0-34.89-34.89-29.52-34.89-29.52v-4.03h46.97v-1.34ZM349.92,699.83l9.39-9.39h57.71v67.1h-67.1v-57.71Z"/>
  <path class="cls-1" d="M300.53,639.44c1.34,0,2.68,1.34,2.68,2.68v2.68c0,1.34-1.34,2.68-2.68,2.68h-24.16c-4.03,80.52-110.05,110.04-195.93,93.94-1.34,0-2.68-1.34-2.68-2.68v-5.37c0-1.34,1.34-2.68,4.03-2.68,64.42,12.08,107.36-6.71,107.36-44.29v-271.09l-42.94,28.18-2.68-4.03,97.97-63.07h34.89v264.38h24.16v-1.34Z"/>
  <path class="cls-3" d="M322.95,261.23c0-.64.64-1.28,1.28-1.28l44.16-3.2v-13.44c0-1.28.64-2.56,1.92-3.84l3.84-2.56c.64-.64,1.92-1.28,3.2-1.28h13.44c7.04,0,10.88,6.4,10.88,10.24v12.16c0,.64-.64,1.28-1.28,1.28l-19.84,1.28v6.4c0,.64-.64,1.28-1.28,1.28l-8.32.64c-.64,0-1.92-.64-1.92-1.28v-5.76l-43.52,3.2c-.64,0-1.92-.64-1.92-1.28v-2.56h-.64ZM326.79,285.55c0-3.2,2.56-5.76,6.4-5.76h5.12v1.28s-6.4-.64-6.4,5.12v16c0,9.6,19.84,12.16,19.84,0v-16c0-3.2,2.56-5.76,6.4-5.76h10.24v1.28s-6.4-.64-6.4,5.12v12.8c0,1.28,0,3.2-.64,3.84,1.28,8.96,19.84,8.32,19.84-1.28v-16c0-3.2,2.56-5.76,6.4-5.76h10.24v1.28s-6.4-.64-6.4,5.12v12.8c0,17.28-26.24,18.56-32,7.04-5.76,14.72-33.28,11.52-33.28-4.48v-16.64h.64ZM381.83,236.91c-.64,0-1.28.64-1.28,1.28v17.92l8.96-.64v-14.72c0-3.84-4.48-3.84-4.48-3.84h-3.2Z"/>
</svg>